# xmcd
# Track frame offsets:
# 150
# 21023
# 42540
# 59342
# 78256
# 95105
# 117645
# 151015
# 175414
#
# Disc length: 2674 seconds
# Revision: 0
# Processed by: cddbd v1.5.1PL0 Copyright (c) Steve Scherf et al.
# Submitted via: VisiTrax 2.9.9.209 - For more info visit www.synapsa.com
#
DISCID=720a7009
DTITLE=Stevie Wonder - Innervisions
DYEAR=1973
DGENRE=R&B
TTITLE0=Too High
TTITLE1=Visions
TTITLE2=Living For The City
TTITLE3=Golden Lady
TTITLE4=Higher Ground
TTITLE5=Jesus Children Of America
TTITLE6=All In Love Is Fair
TTITLE7=Don't You Worry 'Bout A Thing
TTITLE8=He's Misstra Know It All
EXTD=
EXTT0=
EXTT1=
EXTT2=
EXTT3=
EXTT4=
EXTT5=
EXTT6=
EXTT7=
EXTT8=
PLAYORDER=
